Normalized EMG Linear Envelopes
nRows=143
nColumns=4

endheader
time	 med_gas_r	  soleus_r	 tib_ant_r	
2.66112	  0.074057	  0.091321	  0.030799	
2.69438	  0.073208	  0.092786	  0.030800	
2.72765	  0.072467	  0.094128	  0.030836	
2.76091	  0.071902	  0.095178	  0.030939	
2.79418	  0.071694	  0.095719	  0.031074	
2.82744	  0.072017	  0.095629	  0.031143	
2.8607	  0.072900	  0.094964	  0.031011	
2.89397	  0.074172	  0.093909	  0.030577	
2.92723	  0.075549	  0.092703	  0.029824	
2.9605	  0.076799	  0.091615	  0.028835	
2.99376	  0.077849	  0.090994	  0.027765	
3.02702	  0.078726	  0.091232	  0.026784	
3.06029	  0.079426	  0.092607	  0.026017	
3.09355	  0.079852	  0.095088	  0.025518	
3.12682	  0.079891	  0.098305	  0.025291	
3.16008	  0.079548	  0.101715	  0.025327	
3.19334	  0.078988	  0.104840	  0.025623	
3.22661	  0.078475	  0.107414	  0.026163	
3.25987	  0.078255	  0.109388	  0.026885	
3.29314	  0.078467	  0.110852	  0.027694	
3.3264	  0.079104	  0.111912	  0.028500	
3.35966	  0.080017	  0.112554	  0.029264	
3.39293	  0.080947	  0.112605	  0.029982	
3.42619	  0.081566	  0.111876	  0.030643	
3.45946	  0.081525	  0.110380	  0.031205	
3.49272	  0.080528	  0.108451	  0.031608	
3.52598	  0.078438	  0.106653	  0.031815	
3.55925	  0.075387	  0.105584	  0.031826	
3.59251	  0.071800	  0.105695	  0.031680	
3.62578	  0.068258	  0.107166	  0.031429	
3.65904	  0.065283	  0.109798	  0.031125	
3.6923	  0.063165	  0.112989	  0.030820	
3.72557	  0.061961	  0.115898	  0.030567	
3.75883	  0.061604	  0.117791	  0.030407	
3.7921	  0.061986	  0.118381	  0.030350	
3.82536	  0.062953	  0.117900	  0.030363	
3.85862	  0.064261	  0.116861	  0.030383	
3.89189	  0.065589	  0.115663	  0.030351	
3.92515	  0.066634	  0.114355	  0.030238	
3.95842	  0.067214	  0.112720	  0.030055	
3.99168	  0.067331	  0.110595	  0.029851	
4.02494	  0.067175	  0.108167	  0.029702	
4.05821	  0.067086	  0.106001	  0.029688	
4.09147	  0.067456	  0.104798	  0.029848	
4.12474	  0.068584	  0.105107	  0.030161	
4.158	  0.070590	  0.107177	  0.030555	
4.19126	  0.073497	  0.110997	  0.030962	
4.22453	  0.077425	  0.116420	  0.031350	
4.25779	  0.082649	  0.123216	  0.031742	
4.29106	  0.089332	  0.130970	  0.032184	
4.32432	  0.097085	  0.138875	  0.032714	
4.35758	  0.104794	  0.145634	  0.033337	
4.39085	  0.111053	  0.149712	  0.034028	
4.42411	  0.114978	  0.149921	  0.034747	
4.45738	  0.116699	  0.146049	  0.035474	
4.49064	  0.117050	  0.139057	  0.036212	
4.5239	  0.116773	  0.130622	  0.036987	
4.55717	  0.116120	  0.122312	  0.037830	
4.59043	  0.115265	  0.114950	  0.038761	
4.6237	  0.114990	  0.108611	  0.039776	
4.65696	  0.116719	  0.103083	  0.040863	
4.69022	  0.121725	  0.098343	  0.042005	
4.72349	  0.130353	  0.094648	  0.043170	
4.75675	  0.142054	  0.092318	  0.044282	
4.79002	  0.156004	  0.091451	  0.045228	
4.82328	  0.171311	  0.091834	  0.045909	
4.85654	  0.186461	  0.093034	  0.046330	
4.88981	  0.198807	  0.094584	  0.046619	
4.92307	  0.205146	  0.096145	  0.046992	
4.95634	  0.203323	  0.097572	  0.047770	
4.9896	  0.193614	  0.098887	  0.049507	
5.02286	  0.178768	  0.100214	  0.053082	
5.05613	  0.162745	  0.101776	  0.059493	
5.08939	  0.149087	  0.103919	  0.069346	
5.12266	  0.139822	  0.107052	  0.082495	
5.15592	  0.135333	  0.111443	  0.098257	
5.18918	  0.135051	  0.116960	  0.116046	
5.22245	  0.138438	  0.122950	  0.135647	
5.25571	  0.145452	  0.128410	  0.156645	
5.28898	  0.156091	  0.132351	  0.177611	
5.32224	  0.169452	  0.134159	  0.196079	
5.3555	  0.183362	  0.133731	  0.209653	
5.38877	  0.195177	  0.131397	  0.217329	
5.42203	  0.203271	  0.127743	  0.219951	
5.4553	  0.207999	  0.123439	  0.219558	
5.48856	  0.211222	  0.119080	  0.218263	
5.52182	  0.214694	  0.115077	  0.217372	
5.55509	  0.218571	  0.111630	  0.217112	
5.58835	  0.221385	  0.108812	  0.216912	
5.62162	  0.221590	  0.106677	  0.215962	
5.65488	  0.219309	  0.105285	  0.213746	
5.68814	  0.216491	  0.104618	  0.210364	
5.72141	  0.215186	  0.104501	  0.206559	
5.75467	  0.215609	  0.104650	  0.203404	
5.78794	  0.215978	  0.104865	  0.201771	
5.8212	  0.214287	  0.105201	  0.201986	
5.85446	  0.210220	  0.105955	  0.203963	
5.88773	  0.205376	  0.107461	  0.207580	
5.92099	  0.201791	  0.109877	  0.212808	
5.95426	  0.200355	  0.113100	  0.219468	
5.98752	  0.200578	  0.116809	  0.227020	
6.02078	  0.201678	  0.120565	  0.234715	
6.05405	  0.203628	  0.123988	  0.242003	
6.08731	  0.206986	  0.126986	  0.248862	
6.12058	  0.211807	  0.129901	  0.255808	
6.15384	  0.217024	  0.133361	  0.263523	
6.1871	  0.221173	  0.137811	  0.272308	
6.22037	  0.223656	  0.143013	  0.281708	
6.25363	  0.225060	  0.147917	  0.290645	
6.2869	  0.226153	  0.151124	  0.297999	
6.32016	  0.226807	  0.151689	  0.303225	
6.35342	  0.226163	  0.149716	  0.306614	
6.38669	  0.223851	  0.146285	  0.309076	
6.41995	  0.220816	  0.142765	  0.311614	
6.45322	  0.218739	  0.140071	  0.314797	
6.48648	  0.218697	  0.138399	  0.318513	
6.51974	  0.220496	  0.137485	  0.322140	
6.55301	  0.223224	  0.137046	  0.325031	
6.58627	  0.226138	  0.136985	  0.326971	
6.61954	  0.228898	  0.137350	  0.328300	
6.6528	  0.231314	  0.138224	  0.329657	
6.68606	  0.233322	  0.139694	  0.331550	
6.71933	  0.235178	  0.141861	  0.334025	
6.75259	  0.237184	  0.144761	  0.336536	
6.78586	  0.239034	  0.148210	  0.338044	
6.81912	  0.239795	  0.151731	  0.337441	
6.85238	  0.238916	  0.154694	  0.334276	
6.88565	  0.237168	  0.156577	  0.329416	
6.91891	  0.236268	  0.157143	  0.325024	
6.95218	  0.237502	  0.156436	  0.323561	
6.98544	  0.240740	  0.154644	  0.326315	
7.0187	  0.244673	  0.152016	  0.332516	
7.05197	  0.247820	  0.148879	  0.339812	
7.08523	  0.249436	  0.145699	  0.345759	
7.1185	  0.249761	  0.143025	  0.349197	
7.15176	  0.249571	  0.141268	  0.350495	
7.18502	  0.249501	  0.140488	  0.350654	
7.21829	  0.249711	  0.140396	  0.350189	
7.25155	  0.250079	  0.140561	  0.348739	
7.28482	  0.250451	  0.140672	  0.345576	
7.31808	  0.250590	  0.140640	  0.340398	
7.35134	  0.250040	  0.140503	  0.333678	
7.38461	  0.248256	  0.140261	  0.326404	
